<svg width="1360" height="80" viewBox="0 0 1360 80" fill="none" xmlns="http://www.w3.org/2000/svg">
<rect width="1360" height="80" rx="12" fill="#286897"/>
<mask id="mask0_610_378" style="mask-type:alpha" maskUnits="userSpaceOnUse" x="0" y="0" width="1360" height="80">
<rect width="1360" height="80" rx="12" fill="#286897"/>
</mask>
<g mask="url(#mask0_610_378)">
<circle cx="1338" cy="20" r="30" fill="#FFF8BA"/>
</g>
<path d="M25.072 51C25.072 40.92 28.528 35.808 33.352 31.056V26.88H16.9V30.624H29.536C25.756 34.368 20.608 39.732 20.608 51H25.072ZM44.7106 51.36C50.0026 51.36 53.6026 48.804 53.6026 44.772C53.6026 41.532 51.7306 38.904 47.1586 38.616C50.3266 38.292 52.6306 36.06 52.6306 33.108C52.6306 29.832 50.2186 26.52 44.6386 26.52C39.9946 26.52 36.7186 29.148 35.6386 32.424L38.8786 35.196C39.3826 32.064 41.5786 30.408 44.4946 30.408C47.1946 30.408 48.4546 31.992 48.4546 34.008C48.4546 36.204 47.0146 37.248 44.4226 37.248H40.4626V40.596H44.2786C47.2666 40.596 49.2826 41.604 49.2826 44.088C49.2826 46.212 47.6986 47.508 44.8906 47.508C40.8226 47.508 39.1666 45.312 38.4466 41.892L35.2066 44.772C36.1066 48.372 39.3826 51.36 44.7106 51.36ZM60.091 32.208C61.783 32.208 63.115 30.984 63.115 29.184C63.115 27.42 61.783 26.16 60.091 26.16C58.435 26.16 57.103 27.42 57.103 29.184C57.103 30.984 58.435 32.208 60.091 32.208ZM60.091 30.66C59.299 30.66 58.759 30.084 58.759 29.184C58.759 28.284 59.299 27.708 60.091 27.708C60.919 27.708 61.459 28.284 61.459 29.184C61.459 30.084 60.919 30.66 60.091 30.66Z" fill="white"/>
</svg>
